<?xml version="1.0" encoding="UTF-8"?>
<svg width="15px" height="15px" viewBox="0 0 15 15" version="1.1" xmlns="http://www.w3.org/2000/svg" xmlns:xlink="http://www.w3.org/1999/xlink">
    <!-- Generator: Sketch 43.1 (39012) - http://www.bohemiancoding.com/sketch -->
    <title>Shape</title>
    <desc>Created with Sketch.</desc>
    <defs></defs>
    <g id="Page-1" stroke="none" stroke-width="1" fill="none" fill-rule="evenodd">
        <g id="desktop" transform="translate(-350.000000, -502.000000)" fill-rule="nonzero" fill="#EC3950">
            <g id="Login" transform="translate(31.000000, 320.000000)">
                <g id="button" transform="translate(269.000000, 167.000000)">
                    <path d="M59.3290342,29.6338767 L64.6861801,23.3838726 C65.1046066,22.8957473 65.1046066,22.1042624 64.6861801,21.6160981 L59.3290342,15.366094 C58.9106077,14.8779687 58.2322256,14.8779687 57.813799,15.366094 C57.3953724,15.8542193 57.3953724,16.6457042 57.813799,17.1338686 L61.3419148,21.2500041 L51.0714292,21.2500041 C50.4796989,21.2500041 50,21.8096529 50,22.5000049 C50,23.1903569 50.4796989,23.7500057 51.0714292,23.7500057 L61.3419148,23.7500057 L57.813799,27.8661412 C57.6046025,28.1102038 57.5000042,28.4301259 57.5000042,28.750009 C57.5000042,29.069892 57.6046025,29.3898141 57.813799,29.6338767 C58.2322256,30.1220411 58.9106077,30.1220411 59.3290342,29.6338767 Z" id="Shape"></path>
                </g>
            </g>
        </g>
    </g>
</svg>