<?xml version="1.0" encoding="UTF-8"?>
<svg width="109px" height="59px" viewBox="0 0 109 59" version="1.1" xmlns="http://www.w3.org/2000/svg" xmlns:xlink="http://www.w3.org/1999/xlink">
    <!-- Generator: Sketch 43.1 (39012) - http://www.bohemiancoding.com/sketch -->
    <title>logo</title>
    <desc>Created with Sketch.</desc>
    <defs></defs>
    <g id="Page-1" stroke="none" stroke-width="1" fill="none" fill-rule="evenodd" stroke-linecap="round">
        <g id="desktop" transform="translate(-154.000000, -154.000000)" stroke="#FFFFFF" stroke-width="3.3">
            <g id="Splash" transform="translate(31.000000, 78.000000)">
                <g id="logo" transform="translate(125.000000, 78.000000)">
                    <path d="M6.37646484,37.0908203 C6.37646484,37.0908203 0.340015906,41.1269531 0.243164063,46.0195312 C0.146312219,50.9121094 2.66015625,54.3447266 6.75,54.9482422 C10.8398438,55.5517578 14.8774414,52.9931641 16.5737305,47.8388672 C18.2700195,42.6845703 15.2905273,36.862793 12.9331055,36.2885742 C10.5756836,35.7143555 7.95410156,43.1220703 14.5561523,47.3164062 C21.1582031,51.5107422 25.9394531,45.6460905 25.9394531,45.6460905 C25.9394531,45.6460905 28.3330078,38.1186523 36.2119141,35.8500977 C36.2194824,35.8452148 27.5761719,40.1164551 26.7578125,45.8835449 C25.9394531,51.6506348 30.4890137,53.8359375 30.7495117,53.8359375 C31.0100098,53.8359375 36.2409668,55.7114258 40.8044434,44.5585937 C45.3679199,33.4057617 49.173584,15.9663086 49.2060547,12.4348145 C49.2385254,8.90332031 49.4289551,0.431640625 45.5803223,0.431640625 C41.7316895,0.431640625 39.8398438,10.8835449 39.4470215,13.4506836 C39.0541992,16.0178223 38.2412109,26.668457 40.2456055,37.8029785 C42.25,48.9375 43.4897461,53.2109375 48.0014648,54.0795898 C52.5131836,54.9482422 58.3271484,46.3664551 60.635498,40.4272461 C61.3552838,38.5752917 63.041303,35.0585978 64.324707,30.9448242 C65.6081111,26.8310507 69.7736816,7.39819336 64.324707,6.3359375 C60.9871275,5.68528968 58.8232422,14.3408203 58.3549805,19.25 C57.8867188,24.1591797 55.6188965,54.2617188 66.8696289,54.2617188 C78.1203613,54.2617188 81.5837402,33.4775391 79.5146484,29.902832 C77.4455566,26.328125 75.2524414,34.8222656 75.2524414,34.8222656 C75.2524414,34.8222656 74.6923828,37.9926758 82.8374023,36.4082031 C90.9824219,34.8237305 88.0773926,41.503418 87.6821289,43.2089844 C87.2868652,44.9145508 84.5432129,52.9018555 91.6398926,54.394043 C98.7365723,55.8862305 104.908447,42.2282715 104.908447,42.2282715" id="swirl"></path>
                    <path d="M89.7666016,13.9 L42.611319,13.9" id="line"></path>
                </g>
            </g>
        </g>
    </g>
</svg>