<?xml version="1.0" encoding="UTF-8"?>
<svg width="11px" height="11px" viewBox="0 0 11 11" version="1.1" xmlns="http://www.w3.org/2000/svg" xmlns:xlink="http://www.w3.org/1999/xlink">
    <!-- Generator: Sketch 43.1 (39012) - http://www.bohemiancoding.com/sketch -->
    <title>Shape</title>
    <desc>Created with Sketch.</desc>
    <defs></defs>
    <g id="Page-1" stroke="none" stroke-width="1" fill="none" fill-rule="evenodd">
        <g id="desktop" transform="translate(-131.000000, -458.000000)" fill-rule="nonzero" fill="#EC3950">
            <g id="Login" transform="translate(31.000000, 320.000000)">
                <path d="M107.5625,138 C105.663969,138 104.125,139.538969 104.125,141.4375 C104.125,141.652344 104.150437,141.859281 104.18825,142.06175 L100,146.25 L100,149 L104.125,149 L104.125,147.625 L105.5,147.625 L105.5,146.25 L106.875,146.25 L106.875,144.875 L106.93825,144.81175 C107.140719,144.849562 107.347656,144.875 107.5625,144.875 C109.461031,144.875 111,143.336031 111,141.4375 C111,139.538969 109.461031,138 107.5625,138 Z M107.56525,142.125 C107.185406,142.125 106.87775,141.817344 106.87775,141.4375 C106.87775,141.057656 107.185406,140.75 107.56525,140.75 C107.945094,140.75 108.25275,141.057656 108.25275,141.4375 C108.25275,141.817344 107.945094,142.125 107.56525,142.125 Z" id="Shape"></path>
            </g>
        </g>
    </g>
</svg>