<?xml version="1.0" encoding="UTF-8"?>
<svg width="20px" height="20px" viewBox="0 0 20 20" version="1.1" xmlns="http://www.w3.org/2000/svg" xmlns:xlink="http://www.w3.org/1999/xlink">
    <!-- Generator: Sketch 43.1 (39012) - http://www.bohemiancoding.com/sketch -->
    <title>Shape</title>
    <desc>Created with Sketch.</desc>
    <defs></defs>
    <g id="Page-1" stroke="none" stroke-width="1" fill="none" fill-rule="evenodd">
        <g id="desktop" transform="translate(-58.000000, -648.000000)" fill-rule="nonzero" fill="#FFFFFF">
            <g id="Qoute" transform="translate(31.000000, 560.000000)">
                <g id="qoute" transform="translate(27.000000, 88.000000)">
                    <path d="M9.23076923,11.8181818 L9.23076923,17.2727273 C9.23076923,18.7784091 8.19711538,20 6.92307692,20 L2.30769231,20 C1.03365385,20 0,18.7784091 0,17.2727273 L0,7.27272727 C0,3.26704545 2.76442308,0 6.15384615,0 L6.92307692,0 C7.34375,0 7.69230769,0.411931818 7.69230769,0.909090909 L7.69230769,2.72727273 C7.69230769,3.22443182 7.34375,3.63636364 6.92307692,3.63636364 L6.15384615,3.63636364 C4.45913462,3.63636364 3.07692308,5.26988636 3.07692308,7.27272727 L3.07692308,7.72727273 C3.07692308,8.48011364 3.59375,9.09090909 4.23076923,9.09090909 L6.92307692,9.09090909 C8.19711538,9.09090909 9.23076923,10.3125 9.23076923,11.8181818 Z M20,11.8181818 L20,17.2727273 C20,18.7784091 18.9663462,20 17.6923077,20 L13.0769231,20 C11.8028846,20 10.7692308,18.7784091 10.7692308,17.2727273 L10.7692308,7.27272727 C10.7692308,3.26704545 13.5336538,0 16.9230769,0 L17.6923077,0 C18.1129808,0 18.4615385,0.411931818 18.4615385,0.909090909 L18.4615385,2.72727273 C18.4615385,3.22443182 18.1129808,3.63636364 17.6923077,3.63636364 L16.9230769,3.63636364 C15.2283654,3.63636364 13.8461538,5.26988636 13.8461538,7.27272727 L13.8461538,7.72727273 C13.8461538,8.48011364 14.3629808,9.09090909 15,9.09090909 L17.6923077,9.09090909 C18.9663462,9.09090909 20,10.3125 20,11.8181818 Z" id="Shape"></path>
                </g>
            </g>
        </g>
    </g>
</svg>