<?xml version="1.0" encoding="UTF-8"?>
<svg width="20px" height="20px" viewBox="0 0 20 20" version="1.1" xmlns="http://www.w3.org/2000/svg" xmlns:xlink="http://www.w3.org/1999/xlink">
    <!-- Generator: Sketch 43.1 (39012) - http://www.bohemiancoding.com/sketch -->
    <title>Shape</title>
    <desc>Created with Sketch.</desc>
    <defs></defs>
    <g id="Page-1" stroke="none" stroke-width="1" fill="none" fill-rule="evenodd">
        <g id="desktop" transform="translate(-334.000000, -678.000000)" fill-rule="nonzero" fill="#FFFFFF">
            <g id="Qoute" transform="translate(31.000000, 560.000000)">
                <g id="qoute" transform="translate(27.000000, 88.000000)">
                    <path d="M285.230769,32.7272727 L285.230769,42.7272727 C285.230769,46.7329545 282.466346,50 279.076923,50 L278.307692,50 C277.887019,50 277.538462,49.5880682 277.538462,49.0909091 L277.538462,47.2727273 C277.538462,46.7755682 277.887019,46.3636364 278.307692,46.3636364 L279.076923,46.3636364 C280.771635,46.3636364 282.153846,44.7301136 282.153846,42.7272727 L282.153846,42.2727273 C282.153846,41.5198864 281.637019,40.9090909 281,40.9090909 L278.307692,40.9090909 C277.033654,40.9090909 276,39.6875 276,38.1818182 L276,32.7272727 C276,31.2215909 277.033654,30 278.307692,30 L282.923077,30 C284.197115,30 285.230769,31.2215909 285.230769,32.7272727 Z M296,32.7272727 L296,42.7272727 C296,46.7329545 293.235577,50 289.846154,50 L289.076923,50 C288.65625,50 288.307692,49.5880682 288.307692,49.0909091 L288.307692,47.2727273 C288.307692,46.7755682 288.65625,46.3636364 289.076923,46.3636364 L289.846154,46.3636364 C291.540865,46.3636364 292.923077,44.7301136 292.923077,42.7272727 L292.923077,42.2727273 C292.923077,41.5198864 292.40625,40.9090909 291.769231,40.9090909 L289.076923,40.9090909 C287.802885,40.9090909 286.769231,39.6875 286.769231,38.1818182 L286.769231,32.7272727 C286.769231,31.2215909 287.802885,30 289.076923,30 L293.692308,30 C294.966346,30 296,31.2215909 296,32.7272727 Z" id="Shape"></path>
                </g>
            </g>
        </g>
    </g>
</svg>